[CENTER][IMG]http://makeagif.com/media/9-20-2011/9qDvdz.gif[/IMG]


[QUOTE]Format                           : Matroska
File size                        : 800 MiB
Duration                         : 2h 49mn
Overall bit rate                 : 659 Kbps
Movie name                       : Rip By Deadman
Encoded date                     : UTC 2011-09-26 10:02:31
Writing application              : mkvmerge v4.4.0 ('Die Wiederkehr') built on Oct 31 2010 21:52:48
Writing library                  : libebml v1.0.0 + libmatroska v1.0.0

Video
ID                               : 1
Format                           : AVC
Format/Info                      : Advanced Video Codec
Format profile                   : High@L2.1
Format settings, CABAC           : Yes
Format settings, ReFrames        : 4 frames
Muxing mode                      : Header stripping
Codec ID                         : V_MPEG4/ISO/AVC
Duration                         : 2h 49mn
Bit rate                         : 573 Kbps
Width                            : 600 pixels
Height                           : 250 pixels
Display aspect ratio             : 2.40:1
Frame rate                       : 23.976 fps
Color space                      : YUV
Chroma subsampling               : 4:2:0
Bit depth                        : 8 bits
Scan type                        : Progressive
Bits/(Pixel*Frame)               : 0.159
Stream size                      : 681 MiB (85%)

Audio
ID                               : 2
Format                           : MPEG Audio
Format version                   : Version 1
Format profile                   : Layer 3
Mode                             : Joint stereo
Mode extension                   : MS Stereo
Muxing mode                      : Header stripping
Codec ID                         : A_MPEG/L3
Codec ID/Hint                    : MP3
Duration                         : 2h 49mn
Bit rate mode                    : Variable
Bit rate                         : 84.9 Kbps
Nominal bit rate                 : 96.0 Kbps
Channel(s)                       : 2 channels
Sampling rate                    : 32.0 KHz
Compression mode                 : Lossy
Stream size                      : 103 MiB (13%)
Title                            : Deadman
Writing library                  : LAME3.98r
Encoding settings                : -m j -V 4 -q 2 -lowpass 15.1 --abr 96[/QUOTE]

[HIDE-THANKS][CENTER] 
http://i.imgur.com/ba9hZ.jpg 
http://i.imgur.com/Enryd.jpg 
http://i.imgur.com/5DAd8.jpg 
http://i.imgur.com/5I8Mh.jpg 
http://i.imgur.com/MTuOi.jpg 
http://i.imgur.com/tbTMY.jpg 
http://i.imgur.com/EGSkD.jpg 
http://i.imgur.com/2meKd.png 
http://i.imgur.com/IYIEw.jpg 
http://i.imgur.com/fUOs4.png
[/CENTER]
[/HIDE-THANKS]

[CENTER][IMG]http://www.guelphpc.ca/images/facebook-logo.jpg[/IMG]
[SIZE="5"][COLOR="Black"][FONT="Comic Sans MS"]Clickto Join us on FB


[I][U][SIZE="6"][FONT="Century Gothic"][COLOR="Purple"]Clickto add reputition if U like My post Thx In advance!![/COLOR][/FONT][/SIZE][/U][/I]

[IMG]http://i648.photobucket.com/albums/uu204/sabeer4031/2qw0853.gif[/IMG]

[IMG]http://s1.eih.bz/images/03e855da.gif[/IMG][/CENTER]